<?xml version="1.0" ?><svg id="Outline" viewBox="0 0 512 512" xmlns="http://www.w3.org/2000/svg"><defs><style>.cls-1{fill:#262626;}</style></defs><path class="cls-1" d="M256,58.65c-108.38,0-196.56,88.18-196.56,196.56S147.62,451.77,256,451.77,452.56,363.6,452.56,255.21,364.38,58.65,256,58.65Zm0,370.45c-95.88,0-173.88-78-173.88-173.89S160.12,81.33,256,81.33s173.88,78,173.88,173.88S351.88,429.1,256,429.1Z"/><path class="cls-1" d="M256.18,189a66.8,66.8,0,1,0,66.8,66.8A66.87,66.87,0,0,0,256.18,189Zm0,110.92a44.13,44.13,0,1,1,44.12-44.12A44.17,44.17,0,0,1,256.18,299.88Z"/><path class="cls-1" d="M372,216.2H361.2l-2.7-6.53,7.61-7.61a26.14,26.14,0,0,0,0-36.91l-19-19a26.12,26.12,0,0,0-36.91,0l-7.61,7.61L296,151V140.26a26.13,26.13,0,0,0-26.1-26.1H243a26.13,26.13,0,0,0-26.1,26.1V151l-6.53,2.71-7.61-7.61a26.12,26.12,0,0,0-36.91,0l-19,19a26.12,26.12,0,0,0,0,36.91l7.61,7.61-2.71,6.53H141a26.13,26.13,0,0,0-26.11,26.1v26.92A26.13,26.13,0,0,0,141,295.32h10.75l2.71,6.52-7.61,7.61a26.12,26.12,0,0,0,0,36.91l19,19a26.11,26.11,0,0,0,36.91,0l7.61-7.61,6.53,2.7v10.76a26.13,26.13,0,0,0,26.1,26.1h26.92a26.13,26.13,0,0,0,26.1-26.1V360.49l6.52-2.7,7.61,7.61a26.14,26.14,0,0,0,36.91,0l19-19a26.14,26.14,0,0,0,0-36.91l-7.61-7.61,2.7-6.52H372a26.13,26.13,0,0,0,26.1-26.1V242.3A26.13,26.13,0,0,0,372,216.2Zm3.42,53a3.42,3.42,0,0,1-3.42,3.42H353.62a11.33,11.33,0,0,0-10.47,7l-8.5,20.52a11.32,11.32,0,0,0,2.46,12.36l13,13a3.42,3.42,0,0,1,0,4.84l-19,19a3.42,3.42,0,0,1-4.84,0l-13-13a11.32,11.32,0,0,0-12.36-2.46l-20.52,8.5a11.33,11.33,0,0,0-7,10.47v18.34a3.42,3.42,0,0,1-3.42,3.42H243a3.42,3.42,0,0,1-3.42-3.42V352.91a11.34,11.34,0,0,0-7-10.47l-20.53-8.5a11.29,11.29,0,0,0-12.35,2.46l-13,13a3.43,3.43,0,0,1-4.84,0l-19-19a3.43,3.43,0,0,1,0-4.84l13-13a11.36,11.36,0,0,0,2.46-12.36l-8.5-20.52a11.34,11.34,0,0,0-10.48-7H141a3.43,3.43,0,0,1-3.43-3.42V242.3a3.44,3.44,0,0,1,3.43-3.43h18.33a11.35,11.35,0,0,0,10.48-7l8.5-20.53A11.34,11.34,0,0,0,175.83,199l-13-13a3.43,3.43,0,0,1,0-4.84l19-19a3.43,3.43,0,0,1,4.84,0l13,13a11.34,11.34,0,0,0,12.35,2.46l20.53-8.5a11.36,11.36,0,0,0,7-10.48V140.26a3.42,3.42,0,0,1,3.42-3.42h26.92a3.43,3.43,0,0,1,3.42,3.42V158.6a11.34,11.34,0,0,0,7,10.48l20.52,8.5a11.36,11.36,0,0,0,12.36-2.46l13-13a3.45,3.45,0,0,1,4.85,0l19,19a3.42,3.42,0,0,1,0,4.84l-13,13a11.3,11.3,0,0,0-2.46,12.35l8.5,20.53a11.33,11.33,0,0,0,10.47,7H372a3.43,3.43,0,0,1,3.42,3.43Z"/></svg>