<?xml version="1.0" encoding="UTF-8" standalone="no"?>
<svg
   xmlns:dc="http://purl.org/dc/elements/1.1/"
   xmlns:cc="http://creativecommons.org/ns#"
   xmlns:rdf="http://www.w3.org/1999/02/22-rdf-syntax-ns#"
   xmlns:svg="http://www.w3.org/2000/svg"
   xmlns="http://www.w3.org/2000/svg"
   viewBox="0 0 853.33331 853.33331"
   height="853.33331"
   width="853.33331"
   xml:space="preserve"
   id="svg2"
   version="1.1"><metadata
     id="metadata8"><rdf:RDF><cc:Work
         rdf:about=""><dc:format>image/svg+xml</dc:format><dc:type
           rdf:resource="http://purl.org/dc/dcmitype/StillImage" /></cc:Work></rdf:RDF></metadata><defs
     id="defs6" /><g
     transform="matrix(1.3333333,0,0,-1.3333333,0,853.33333)"
     id="g10"><g
       transform="scale(0.1)"
       id="g12"><path
         id="path14"
         style="fill:#1b5065;fill-opacity:1;fill-rule:nonzero;stroke:none"
         d="m 3681.74,2020 c 0,-45.27 -41.92,-80 -93.67,-80 h -829.68 c -51.74,0 -93.67,34.73 -93.67,80 v 0 c 0,45.27 41.93,80 93.67,80 h 829.68 c 51.75,0 93.67,-34.73 93.67,-80 v 0" /><path
         id="path16"
         style="fill:#1b5065;fill-opacity:1;fill-rule:nonzero;stroke:none"
         d="m 3695.13,1865 c 0,-25.45 -41.93,-55 -93.67,-55 h -829.68 c -51.75,0 -93.67,29.55 -93.67,55 v 0 c 0,25.46 41.92,55 93.67,55 h 829.68 c 51.74,0 93.67,-29.54 93.67,-55 v 0" /><path
         id="path18"
         style="fill:#1b5065;fill-opacity:1;fill-rule:nonzero;stroke:none"
         d="m 3681.74,1700 c 0,-36.38 -41.92,-80 -93.67,-80 h -829.68 c -51.74,0 -93.67,43.62 -93.67,80 v 0 c 0,36.38 41.93,80 93.67,80 h 829.68 c 51.75,0 93.67,-43.62 93.67,-80 v 0" /><path
         id="path20"
         style="fill:#1b5065;fill-opacity:1;fill-rule:nonzero;stroke:none"
         d="m 2718.91,2067.58 c -19.74,108.47 -221.51,289.57 -297.59,350.2 -345.99,245.09 -553.64,646.4 -553.64,1072.14 0,724.94 589.79,1314.76 1314.75,1314.76 724.97,0 1314.77,-589.82 1314.77,-1314.76 0,-425.63 -207.55,-826.84 -555.2,-1073.26 -108.95,-86.41 -290.95,-253.31 -308.11,-328.06 l -78.26,17.98 c 29.1,126.55 306.68,349.31 338.26,374.3 328.11,232.69 523,609.42 523,1009.04 0,680.7 -553.76,1234.47 -1234.46,1234.47 -680.69,0 -1234.46,-553.77 -1234.46,-1234.47 0,-399.72 194.97,-776.56 521.57,-1007.97 32.2,-25.56 299.73,-242.49 328.35,-399.99 l -78.98,-14.38" /><path
         id="path22"
         style="fill:#1b5065;fill-opacity:1;fill-rule:nonzero;stroke:none"
         d="m 835.344,4199.02 c -5.41,0 -10.903,1.1 -16.145,3.43 -20.281,8.94 -29.511,32.62 -20.578,52.9 10.82,24.57 21.984,48.87 33.535,73.02 9.59,20.02 33.528,28.49 53.559,18.9 20,-9.57 28.457,-33.53 18.894,-53.53 -11.179,-23.39 -22.031,-46.97 -32.492,-70.75 -6.637,-15 -21.355,-23.97 -36.773,-23.97 z m -78.008,-199.34 c -4.34,0 -8.731,0.73 -13.066,2.19 -20.969,7.22 -32.114,30.06 -24.922,51.03 11.797,34.29 24.422,68.63 37.539,102.09 8.062,20.69 31.441,30.89 52.008,22.73 20.648,-8.08 30.839,-31.36 22.746,-52.01 -12.703,-32.43 -24.942,-65.71 -36.336,-98.9 -5.727,-16.67 -21.301,-27.13 -37.969,-27.13 z m -85.207,-309.45 c -2.742,0 -5.488,0.31 -8.262,0.89 -21.719,4.52 -35.625,25.79 -31.074,47.51 14.734,70.57 32.695,141.45 53.34,210.74 6.355,21.25 28.722,33.3 49.953,27 21.25,-6.33 33.316,-28.7 26.988,-49.95 -20.015,-67.14 -37.398,-135.83 -51.719,-204.25 -3.945,-18.92 -20.64,-31.94 -39.226,-31.94 z m -54.816,-531.51 c -22.157,0 -40.133,17.96 -40.133,40.15 0,145.11 11.968,290.74 35.562,432.87 3.637,21.87 24.262,36.64 46.184,33.03 21.844,-3.63 36.648,-24.3 33.015,-46.18 -22.871,-137.82 -34.48,-279.01 -34.48,-419.72 0,-22.19 -17.981,-40.15 -40.148,-40.15" /><path
         id="path24"
         style="fill:#1b5065;fill-opacity:1;fill-rule:nonzero;stroke:none"
         d="M 3200,576.609 C 1753.78,576.609 577.18,1750 577.18,3200 h 80.281 C 657.461,1810 1798.05,656.891 3200,656.891 c 699.25,0 1351.01,277.73 1835.19,782.519 l 57.96,-55.4 C 4593.66,863.25 3921.34,576.609 3200,576.609" /><path
         id="path26"
         style="fill:#1b5065;fill-opacity:1;fill-rule:nonzero;stroke:none"
         d="m 4872.59,1501.26 379.08,128.65 -78.07,-392.62 z" /><path
         id="path28"
         style="fill:#1b5065;fill-opacity:1;fill-rule:nonzero;stroke:none"
         d="m 5747.73,2732.41 c -2.19,0 -4.38,0.19 -6.63,0.55 -21.85,3.61 -36.65,24.31 -33.01,46.16 22.84,137.68 34.44,278.93 34.44,419.75 0,22.16 17.99,40.14 40.16,40.14 22.15,0 40.13,-17.98 40.13,-40.14 0,-145.24 -11.94,-290.87 -35.54,-432.87 -3.27,-19.66 -20.28,-33.59 -39.55,-33.59 z m -72.29,-312.74 c -3.82,0 -7.66,0.54 -11.49,1.7 -21.26,6.32 -33.33,28.69 -27.01,49.92 20.02,67.14 37.41,135.85 51.73,204.25 4.51,21.72 26.03,35.52 47.49,31.08 21.72,-4.55 35.62,-25.82 31.08,-47.52 -14.75,-70.57 -32.71,-141.48 -53.35,-210.77 -5.21,-17.4 -21.18,-28.66 -38.45,-28.66 z m -69.71,-202.48 c -4.86,0 -9.79,0.89 -14.61,2.77 -20.64,8.08 -30.84,31.36 -22.78,52.01 12.9,32.99 25.14,66.28 36.36,98.95 7.2,20.96 30.02,32.1 51.03,24.88 20.96,-7.21 32.09,-30.05 24.9,-51.01 -11.6,-33.69 -24.22,-68.01 -37.5,-102.04 -6.19,-15.84 -21.34,-25.56 -37.4,-25.56 z m -68.97,-159.77 c -5.75,0 -11.55,1.23 -17.1,3.84 -20.04,9.47 -28.63,33.4 -19.18,53.42 9.35,19.9 18.51,39.89 27.39,60.04 8.95,20.3 32.6,29.5 52.93,20.54 20.28,-8.96 29.48,-32.64 20.52,-52.93 -9.14,-20.75 -18.56,-41.39 -28.22,-61.89 -6.85,-14.5 -21.28,-23.02 -36.34,-23.02" /><path
         id="path30"
         style="fill:#1b5065;fill-opacity:1;fill-rule:nonzero;stroke:none"
         d="m 5822.82,3200 h -80.29 c 0,1420 -1140.59,2541.96 -2542.53,2541.96 -698.33,0 -1349.5,-277.67 -1833.52,-781.36 l -57.92,55.49 C 1807.88,5535.68 2479.6,5822.31 3200,5822.31 4646.22,5822.31 5822.82,4640 5822.82,3200" /><path
         id="path32"
         style="fill:#1b5065;fill-opacity:1;fill-rule:nonzero;stroke:none"
         d="m 1528.99,4898.04 -379.18,-128.28 78.46,392.54 z" /><path
         id="path34"
         style="fill:#1b5065;fill-opacity:1;fill-rule:nonzero;stroke:none"
         d="m 2830.41,3143.82 15.08,16.31 c 10.42,10.49 20.82,21.02 32.04,30.63 10.82,10.07 22.58,19.03 34.14,28.16 11.91,8.7 23.75,17.42 36.27,25.16 12.13,8.31 25.14,15.13 37.79,22.56 13.13,6.5 25.9,13.72 39.37,19.39 l 20.05,8.81 c 6.71,2.82 13.61,5.23 20.41,7.84 13.51,5.46 27.44,9.62 41.24,14.06 13.8,4.55 28.01,7.61 41.94,11.48 14.09,3.32 28.28,6 42.4,9.02 l 0.49,0.12 0.78,0.11 c 14.07,1.9 30.59,6.25 45.65,11.24 15.34,5.09 30.47,11.1 45.18,18.19 14.8,6.9 29.14,14.82 43.1,23.39 13.9,8.7 27.55,17.87 40.47,28.07 6.63,4.92 13,10.14 19.2,15.55 6.37,5.23 12.48,10.8 18.42,16.5 6.13,5.59 12.04,11.33 17.7,17.4 5.78,5.93 11.58,11.87 16.91,18.19 11.14,12.29 21.3,25.43 31.5,38.58 9.67,13.54 19.41,27.03 28.08,41.29 9.32,13.85 16.95,28.75 25.26,43.23 7.45,15.01 15.52,29.69 22.03,45.17 3.38,7.65 6.93,15.26 10.16,23 l 9.2,23.41 c 6.49,15.53 11.17,31.71 16.78,47.54 5.24,16.03 9.57,32.28 14.41,48.44 l 12,49.11 9.9,49.63 8.08,50.02 c 0,0 -151.28,-131.69 -398.76,-159.27 -489.36,-54.49 -495.76,-419.95 -495.76,-419.95 -3.21,-116.21 20.49,-205.34 58.02,-273.76 8.21,11.87 17.02,23.31 26.09,34.45 4.78,5.64 9.46,11.4 14.38,16.93" /><path
         id="path36"
         style="fill:#1b5065;fill-opacity:1;fill-rule:nonzero;stroke:none"
         d="m 3626.44,3945.42 -5.91,-50.34 -7.84,-50.17 -9.91,-49.82 c -4.13,-16.41 -7.81,-32.99 -12.36,-49.35 -4.97,-16.2 -9.04,-32.77 -14.9,-48.71 l -8.31,-24.13 c -2.93,-7.97 -6.19,-15.84 -9.31,-23.75 -5.92,-16 -13.48,-31.32 -20.43,-46.9 -7.81,-15.16 -15.03,-30.7 -23.92,-45.34 -8.29,-14.98 -17.69,-29.33 -27.05,-43.7 -9.93,-13.99 -19.86,-28.04 -30.88,-41.27 -5.3,-6.85 -11.04,-13.25 -16.76,-19.68 -5.63,-6.56 -11.53,-12.83 -17.65,-18.95 -5.95,-6.22 -12.13,-12.31 -18.55,-18.09 -6.27,-5.95 -12.76,-11.73 -19.48,-17.2 -13.14,-11.31 -27.15,-21.64 -41.47,-31.46 -14.42,-9.75 -29.33,-18.82 -44.84,-26.92 -15.43,-8.21 -31.43,-15.45 -47.9,-21.7 -16.77,-6.22 -32.79,-11.49 -52.11,-15 l 1.26,0.21 c -13.36,-3.5 -26.79,-6.64 -40.04,-10.35 -13.13,-4.28 -26.45,-7.74 -39.31,-12.6 -12.86,-4.78 -25.85,-9.22 -38.32,-14.89 -6.27,-2.78 -12.6,-5.29 -18.82,-8.18 l -18.35,-9.07 c -12.33,-5.81 -23.9,-13.05 -35.81,-19.58 -11.39,-7.4 -23.17,-14.19 -34.02,-22.35 -11.24,-7.58 -21.74,-16.1 -32.31,-24.51 -10.19,-8.84 -20.62,-17.46 -30.08,-27.08 -9.85,-9.2 -18.9,-19.18 -27.96,-29.12 l -13.05,-15.37 c -4.23,-5.22 -8.23,-10.63 -12.36,-15.91 -8.02,-10.79 -15.76,-21.75 -22.88,-33.11 -4.12,-6.41 -7.98,-12.91 -11.79,-19.5 122.99,-161.06 326.48,-173.44 326.48,-173.44 464.96,6.22 494.03,419.48 494.03,419.48 39.72,323.73 -17.09,657.85 -17.09,657.85" /><path
         id="path38"
         style="fill:#1b5065;fill-opacity:1;fill-rule:nonzero;stroke:none"
         d="m 2842.49,3070.12 c -8.53,-12.13 -16.56,-24.62 -24.02,-37.43 -7.64,-12.75 -14.59,-25.9 -21.16,-39.23 -6.56,-13.35 -12.56,-26.97 -18.11,-40.79 -5.54,-13.86 -10.42,-28.03 -14.84,-42.4 -4.4,-14.64 -8.18,-28.54 -11.08,-45.16 -0.11,-0.47 -0.18,-1.02 -0.24,-1.46 -2.27,-17.52 10.11,-33.54 27.62,-35.81 17.52,-2.25 33.54,10.14 35.81,27.65 l 0.06,0.57 c 1.47,11.24 4.36,24.83 7.57,37.38 3.35,12.75 7.17,25.51 11.58,38.11 4.39,12.59 9.25,25.03 14.67,37.27 5.38,12.25 11.12,24.35 17.51,36.17 2.7,5.12 5.54,10.19 8.42,15.21 -11.88,15.55 -22.95,32.51 -33.07,50.94 -0.23,-0.33 -0.5,-0.65 -0.72,-1.02" /></g></g></svg>