<svg width="150" height="150" viewBox="0 0 188 179" fill="none" xmlns="http://www.w3.org/2000/svg">
<path d="M146.364 91.8171L149.498 89.2686C150.23 90.2863 151.183 91.118 152.357 91.7638C153.496 92.4067 154.879 92.7973 156.505 92.9356L177.493 94.7207L177.086 99.4974L155.896 97.6951C153.524 97.4934 151.56 96.9168 150.003 95.9655C148.41 95.0451 147.196 93.6623 146.364 91.8171ZM185.15 94.9624C185.895 95.0258 186.497 95.3671 186.956 95.9862C187.413 96.6393 187.611 97.3215 187.55 98.0329C187.49 98.7444 187.182 99.3495 186.628 99.8483C186.071 100.381 185.42 100.616 184.674 100.552C183.895 100.486 183.276 100.143 182.817 99.5241C182.389 98.9418 182.205 98.2949 182.265 97.5834C182.326 96.872 182.636 96.233 183.196 95.6664C183.753 95.1337 184.404 94.899 185.15 94.9624Z" fill="black"/>
<path d="M153.132 109.209C153.583 107.783 154.267 106.465 155.184 105.258C156.123 104.093 157.233 103.231 158.515 102.674L160.541 105.401C159.464 105.987 158.577 106.651 157.878 107.393C157.202 108.178 156.726 109.008 156.449 109.883C156.244 110.532 156.135 111.157 156.123 111.759C156.111 112.362 156.232 112.881 156.486 113.318C156.762 113.798 157.225 114.14 157.873 114.345C158.586 114.571 159.23 114.507 159.806 114.154C160.371 113.834 160.901 113.341 161.396 112.678C161.881 112.047 162.365 111.362 162.848 110.623C163.922 109.144 165.083 108.121 166.333 107.553C167.582 106.985 168.904 106.922 170.298 107.362C171.367 107.701 172.274 108.273 173.018 109.078C173.784 109.927 174.294 110.962 174.55 112.184C174.795 113.438 174.672 114.843 174.18 116.399C173.739 117.793 173.166 118.985 172.461 119.975C171.788 120.974 170.909 121.837 169.823 122.564L167.572 119.873C168.372 119.484 169.047 118.931 169.595 118.212C170.143 117.494 170.535 116.816 170.773 116.178C170.979 115.637 171.068 115.077 171.037 114.496C170.996 113.949 170.849 113.456 170.595 113.019C170.341 112.582 169.971 112.287 169.484 112.133C168.804 111.918 168.181 111.971 167.616 112.291C167.051 112.612 166.526 113.088 166.041 113.719C165.578 114.393 165.105 115.045 164.62 115.676C164.01 116.589 163.339 117.358 162.607 117.982C161.875 118.606 161.08 119.032 160.223 119.261C159.356 119.521 158.388 119.483 157.318 119.144C156.119 118.765 155.093 118.12 154.24 117.208C153.409 116.339 152.87 115.224 152.623 113.862C152.399 112.543 152.568 110.992 153.132 109.209Z" fill="black"/>
<path d="M153.985 137.226L147.828 144.509L144.634 141.809L150.791 134.526L153.985 137.226Z" fill="black"/>
<path d="M117.973 149.493L137.856 164.131L132.783 166.526L118.425 154.75L121.097 153.601L121.623 171.795L116.827 174.06L117.743 149.601L117.973 149.493Z" fill="black"/>
<path d="M99.2234 155.046C101.118 154.855 102.749 155.272 104.116 156.296C105.453 157.358 106.249 158.815 106.504 160.669L108.066 176.197L103.346 176.672L101.953 162.818C101.77 161.675 101.355 160.777 100.708 160.125C100.028 159.475 99.0431 159.199 97.7541 159.294C96.5701 159.413 95.5554 159.857 94.7101 160.625C93.8343 161.431 93.1685 162.455 92.7124 163.697C92.2598 164.972 92.1101 166.371 92.2632 167.894L93.2483 177.687L88.5291 178.162L86.416 157.154L90.7293 156.72L91.6558 161.855L91.3102 160.967C91.6175 159.945 92.1549 159.003 92.9224 158.14C93.6594 157.314 94.564 156.625 95.6361 156.073C96.7083 155.521 97.904 155.178 99.2234 155.046Z" fill="black"/>
<path d="M72.5901 153.825C74.9294 154.421 76.8217 155.395 78.267 156.745C79.7039 158.129 80.678 159.745 81.1892 161.595C81.6591 163.469 81.6255 165.46 81.0883 167.569C80.5763 169.579 79.5997 171.277 78.1587 172.664C76.7176 174.051 75.0145 175.021 73.0494 175.573C71.0844 176.125 69.0475 176.132 66.9388 175.595C64.2371 174.907 62.1981 173.545 60.8219 171.511C59.4456 169.476 58.797 166.995 58.876 164.068L77.2396 162.431L77.6344 165.426L62.5122 166.941L63.6643 166.551C63.7827 167.739 64.2024 168.846 64.9235 169.871C65.6362 170.93 66.7338 171.648 68.2165 172.026C69.4685 172.345 70.6685 172.317 71.8164 171.943C72.9559 171.602 73.94 170.975 74.7687 170.064C75.5974 169.152 76.1838 168.021 76.528 166.67C76.8889 165.253 76.9113 163.926 76.5953 162.687C76.2708 161.482 75.6776 160.436 74.8157 159.55C73.9125 158.688 72.8019 158.09 71.484 157.754C70.5944 157.527 69.6958 157.474 68.7882 157.593C67.8476 157.705 66.9478 157.932 66.0886 158.274L64.8322 154.323C66.0299 153.891 67.3257 153.625 68.7198 153.524C70.0809 153.414 71.371 153.515 72.5901 153.825Z" fill="black"/>
<path d="M43.0135 154.891L35.6193 148.868L38.2606 145.625L45.6547 151.649L43.0135 154.891Z" fill="black"/>
<path d="M30.0921 119.173L15.8257 139.324L13.3367 134.296L24.844 119.722L26.0424 122.372L7.86092 123.236L5.50768 118.482L29.9789 118.944L30.0921 119.173Z" fill="black"/>
<path d="M24.1701 100.639C24.3971 102.53 24.0116 104.168 23.0138 105.555C21.9782 106.912 20.5361 107.736 18.6875 108.026L3.19277 109.886L2.62745 105.177L16.4512 103.518C17.5909 103.313 18.4807 102.88 19.1207 102.221C19.7567 101.529 20.0145 100.539 19.8943 99.252C19.7525 98.0705 19.2893 97.0645 18.5047 96.2341C17.6823 95.374 16.6459 94.7279 15.3955 94.2959C14.1114 93.8679 12.7097 93.7451 11.1906 93.9275L1.4178 95.1006L0.852478 90.3914L21.816 87.8749L22.3327 92.179L17.2164 93.2041L18.0974 92.8415C19.125 93.1291 20.0777 93.6482 20.9554 94.3989C21.7954 95.12 22.5016 96.0112 23.0742 97.0725C23.6468 98.1338 24.0121 99.3227 24.1701 100.639Z" fill="black"/>
<path d="M24.7914 74.1292C24.249 76.4815 23.3191 78.3955 22.0018 79.8713C20.6514 81.3394 19.0576 82.3501 17.2203 82.9034C15.3575 83.416 13.3659 83.4278 11.2455 82.9389C9.22457 82.4728 7.50424 81.5353 6.08454 80.1263C4.66483 78.7173 3.65665 77.0368 3.05999 75.0848C2.46333 73.1328 2.40947 71.0966 2.8984 68.9763C3.52484 66.2596 4.83947 64.19 6.84227 62.7677C8.84508 61.3453 11.3105 60.6403 14.2387 60.6525L16.2945 78.9739L13.3092 79.437L11.4488 64.3533L11.8657 65.4962C10.6807 65.6416 9.58365 66.0865 8.57461 66.8308C7.53244 67.5675 6.83946 68.6813 6.49568 70.1721C6.20538 71.4311 6.26037 72.6301 6.66067 73.7692C7.02783 74.9006 7.67656 75.8702 8.60687 76.6779C9.53718 77.4856 10.6815 78.046 12.0399 78.3592C13.4645 78.6877 14.7922 78.6799 16.023 78.3356C17.2207 77.9837 18.2527 77.3668 19.119 76.4849C19.9598 75.5623 20.533 74.4383 20.8386 73.1131C21.0449 72.2186 21.0779 71.319 20.9375 70.4143C20.8049 69.4765 20.5575 68.5821 20.1955 67.731L24.1173 66.3847C24.5762 67.5722 24.872 68.8617 25.0048 70.2531C25.1452 71.6114 25.074 72.9034 24.7914 74.1292Z" fill="black"/>
<path d="M21.1499 47.4082L17.1098 38.9907L19.6236 34.9086L25.0121 47.7502L21.1499 47.4082ZM38.0299 45.2853L35.0347 50.149L8.63232 52.7567L11.7077 47.7627L38.0299 45.2853ZM25.4856 50.6772L29.2583 59.529L26.7444 63.6111L21.5898 50.9733L25.4856 50.6772Z" fill="black"/>
<path d="M39.4521 26.78L47.2856 21.3404L49.671 24.7754L41.8374 30.215L39.4521 26.78Z" fill="black"/>
<path d="M68.8876 3.79368L70.6429 9.67451L70.2195 8.93178C70.4751 7.55342 71.0067 6.32353 71.8144 5.24211C72.6481 4.12021 73.5621 3.20696 74.5566 2.50234C75.577 1.75726 76.5025 1.29396 77.3329 1.11245L78.0857 5.75068C76.5027 5.99227 75.1896 6.59251 74.1463 7.55142C73.1362 8.50306 72.4095 9.63639 71.9661 10.9514C71.5559 12.2592 71.496 13.5774 71.7864 14.906L73.8447 24.3227L69.2609 25.3246L64.7522 4.6976L68.8876 3.79368Z" fill="black"/>
<path d="M95.1649 23.2465C92.7588 23.0511 90.7301 22.4089 89.0788 21.3197C87.4303 20.1967 86.199 18.7663 85.3849 17.0288C84.6075 15.2601 84.3068 13.2913 84.4828 11.1224C84.6506 9.05522 85.3286 7.21705 86.5167 5.6079C87.7048 3.99876 89.2212 2.75738 91.0659 1.88377C92.9106 1.01016 94.9174 0.661388 97.0863 0.837447C99.8652 1.06302 102.104 2.06341 103.802 3.83861C105.499 5.61381 106.555 7.95086 106.968 10.8498L89.1385 15.5426L88.2471 12.656L102.901 8.62646L101.831 9.20476C101.515 8.05343 100.916 7.03259 100.033 6.14224C99.1527 5.218 97.9501 4.69398 96.4251 4.57019C95.1374 4.46565 93.959 4.69406 92.8901 5.25542C91.8239 5.78288 90.9588 6.56545 90.2946 7.60312C89.6305 8.64078 89.242 9.85433 89.1292 11.2438C89.011 12.701 89.2114 14.0135 89.7306 15.1813C90.2526 16.3153 91.0127 17.2468 92.011 17.976C93.0459 18.674 94.2411 19.0781 95.5967 19.1881C96.5117 19.2624 97.4065 19.1644 98.2813 18.8943C99.1899 18.627 100.039 18.2524 100.829 17.7707L102.73 21.4556C101.621 22.082 100.388 22.5618 99.031 22.8951C97.7075 23.2311 96.4188 23.3482 95.1649 23.2465Z" fill="black"/>
<path d="M115.763 28.3502C113.98 27.5082 112.531 26.3545 111.419 24.8891C110.337 23.4382 109.713 21.7716 109.549 19.8894C109.431 17.9909 109.879 15.9656 110.895 13.8134C111.897 11.692 113.207 10.0732 114.824 8.95688C116.456 7.80985 118.206 7.16968 120.074 7.03636C121.972 6.91755 123.813 7.27913 125.596 8.12109C127.379 8.96305 128.69 10.0894 129.528 11.5002C130.38 12.8803 130.868 14.2761 130.991 15.6878L130.366 16.295L132.697 12.4326L136.663 14.3053L127.648 33.398L123.359 31.373L125.711 26.3923L125.65 27.7168C125.381 27.9662 124.916 28.2353 124.253 28.5239C123.636 28.7964 122.857 29.0117 121.918 29.1697C121.009 29.3423 120.029 29.3872 118.978 29.3044C117.941 29.1908 116.87 28.8728 115.763 28.3502ZM118.592 25.3435C119.668 25.8516 120.731 26.109 121.781 26.1158C122.83 26.1225 123.799 25.903 124.686 25.4572C125.619 24.9951 126.432 24.3076 127.126 23.3946L128.89 19.6591C129.08 18.6206 129.027 17.618 128.731 16.6512C128.45 15.6538 127.966 14.7673 127.28 13.9919C126.607 13.1858 125.749 12.5359 124.703 12.0423C123.566 11.5052 122.39 11.2884 121.175 11.3918C119.961 11.4952 118.829 11.9009 117.781 12.6089C116.763 13.3315 115.942 14.3538 115.318 15.6758C114.737 16.9056 114.499 18.1657 114.604 19.4561C114.709 20.7465 115.116 21.9161 115.824 22.9648C116.532 24.0135 117.455 24.8064 118.592 25.3435Z" fill="black"/>
<path d="M144.596 47.0562C143.394 46.9164 142.166 46.5362 140.914 45.9156C139.661 45.2951 138.564 44.5177 137.623 43.5835C135.983 41.9546 134.87 40.2036 134.287 38.3305C133.703 36.4573 133.636 34.5943 134.086 32.7415C134.584 30.8885 135.624 29.1657 137.205 27.5732C138.786 25.9807 140.525 24.9526 142.423 24.4889C144.344 24.0492 146.208 24.1025 148.013 24.6489C149.866 25.1951 151.48 26.1509 152.856 27.5163C154.062 28.714 154.968 29.9489 155.574 31.2209C156.204 32.5169 156.569 33.7898 156.67 35.0396L152.849 35.5583C152.75 34.7894 152.518 33.9608 152.155 33.0725C151.791 32.1843 151.211 31.3449 150.414 30.5545C149.546 29.6921 148.51 29.1189 147.307 28.8347C146.152 28.5504 144.974 28.5788 143.773 28.9197C142.596 29.2846 141.529 29.9496 140.571 30.9148C139.66 31.8317 139.027 32.9038 138.671 34.1313C138.339 35.3346 138.331 36.5487 138.648 37.7737C138.989 38.9745 139.654 40.066 140.643 41.0481C141.295 41.6949 141.982 42.1853 142.704 42.5192C143.451 42.8771 144.209 43.1028 144.979 43.1962L144.596 47.0562Z" fill="black"/>
<path d="M172.466 38.3523L174.818 42.4711L166.669 47.1245L169.552 52.1733L166.319 54.0195L163.436 48.9706L148.422 57.5439L146.07 53.4252L161.084 44.8519L159.162 41.486L162.395 39.6398L164.317 43.0057L172.466 38.3523Z" fill="black"/>
<path d="M168.11 73.365L169.392 82.8154L165.248 83.3776L163.966 73.9272L168.11 73.365Z" fill="black"/>
<path d="M173 78C173 81.3137 170.314 84 167 84C163.686 84 161 81.3137 161 78C161 74.6863 163.686 72 167 72C170.314 72 173 74.6863 173 78Z" fill="black"/>
<path d="M155 139C155 142.314 152.314 145 149 145C145.686 145 143 142.314 143 139C143 135.686 145.686 133 149 133C152.314 133 155 135.686 155 139Z" fill="black"/>
<path d="M46 151C46 154.314 43.3137 157 40 157C36.6863 157 34 154.314 34 151C34 147.686 36.6863 145 40 145C43.3137 145 46 147.686 46 151Z" fill="black"/>
<path d="M50 25C50 28.3137 47.3137 31 44 31C40.6863 31 38 28.3137 38 25C38 21.6863 40.6863 19 44 19C47.3137 19 50 21.6863 50 25Z" fill="black"/>
</svg>
